<?xml version="1.0" encoding="UTF-8"?>
<svg id="Layer_2" xmlns="http://www.w3.org/2000/svg" version="1.1" viewBox="0 0 100 100">
  <!-- Generator: Adobe Illustrator 29.0.1, SVG Export Plug-In . SVG Version: 2.1.0 Build 192)  -->
  <g>
    <path d="M55.4,10.6H12.3c-3.2,0-5.8,2.6-5.8,5.8v36.5c0,3.2,2.6,5.8,5.8,5.8h43c3.2,0,5.8-2.6,5.8-5.8V16.4c0-3.2-2.6-5.8-5.8-5.8ZM12.3,15.6h43c.5,0,.8.4.8.8v21.4l-9.4-9.4c-1.5-1.5-3.8-1.5-5.3,0l-12.9,12.9-3-3c-1.5-1.5-3.8-1.5-5.3,0l-8.8,8.8v-30.7c0-.5.4-.8.8-.8Z" style="fill: #231f20;"/>
    <circle cx="23.8" cy="26.2" r="5.7" style="fill: #231f20;"/>
  </g>
  <path d="M88.1,25.7h-25.8c-3,0-5.4,2.4-5.4,5.4v20.2c0,3,2.4,5.4,5.4,5.4h25.8c3,0,5.4-2.4,5.4-5.4v-20.2c0-3-2.4-5.4-5.4-5.4ZM84.3,41.9l-10.4,6c-1.3.7-2.9-.2-2.9-1.7v-12c0-1.5,1.6-2.4,2.9-1.7l10.4,6c1.3.7,1.3,2.6,0,3.3Z" style="fill: #231f20;"/>
  <path d="M61.6,59.9c-3.1,0-5.5-2.4-5.6-5.5h-25c-1.5,0-2.6,1.2-2.6,2.6v29.8c0,1.5,1.2,2.6,2.6,2.6h45.9c1.5,0,2.6-1.2,2.6-2.6v-26.9h-18ZM38.6,85.5c0,.4-.3.8-.8.8h-4.9c-.4,0-.8-.3-.8-.8v-4.9c0-.4.3-.8.8-.8h4.9c.4,0,.8.3.8.8v4.9ZM38.6,76.2c0,.4-.3.8-.8.8h-4.9c-.4,0-.8-.3-.8-.8v-4.9c0-.4.3-.8.8-.8h4.9c.4,0,.8.3.8.8v4.9ZM38.6,66.9c0,.4-.3.8-.8.8h-4.9c-.4,0-.8-.3-.8-.8v-4.9c0-.4.3-.8.8-.8h4.9c.4,0,.8.3.8.8v4.9ZM66.3,83.5c0,.8-.6,1.4-1.4,1.4h-21.4c-.8,0-1.4-.6-1.4-1.4v-19.7c0-.8.6-1.4,1.4-1.4h21.4c.8,0,1.4.6,1.4,1.4v19.7ZM76.2,85.5c0,.4-.3.8-.8.8h-4.9c-.4,0-.8-.3-.8-.8v-4.9c0-.4.3-.8.8-.8h4.9c.4,0,.8.3.8.8v4.9ZM76.2,76.2c0,.4-.3.8-.8.8h-4.9c-.4,0-.8-.3-.8-.8v-4.9c0-.4.3-.8.8-.8h4.9c.4,0,.8.3.8.8v4.9ZM76.2,66.9c0,.4-.3.8-.8.8h-4.9c-.4,0-.8-.3-.8-.8v-4.9c0-.4.3-.8.8-.8h4.9c.4,0,.8.3.8.8v4.9Z" style="fill: #231f20;"/>
</svg>