<?xml version="1.0" encoding="utf-8"?>
<!-- Generator: Adobe Illustrator 26.0.3, SVG Export Plug-In . SVG Version: 6.00 Build 0)  -->
<svg version="1.1" id="Layer_1" xmlns="http://www.w3.org/2000/svg" xmlns:xlink="http://www.w3.org/1999/xlink" x="0px"
    y="0px" viewBox="0 0 160.23 200" style="enable-background:new 0 0 160.23 200;" xml:space="preserve">
    <path style="fill:#FFFFFF;"
        d="M150.66,195.47H15.18c-2.91,0-5.27-2.36-5.27-5.27V10.16c0-2.91,2.36-5.27,5.27-5.27h99.38
	c1.4,0,2.74,0.55,3.73,1.54l36.09,36.07c0.99,0.99,1.54,2.33,1.54,3.73V190.2C155.93,193.11,153.57,195.47,150.66,195.47z" />
    <g>
        <polygon style="fill:none;" points="118.27,6.84 118.27,42.64 154.07,42.64 	" />
        <path d="M154.73,42.14L118.65,6.07c-1.09-1.09-2.54-1.69-4.08-1.69H15.18c-3.18,0-5.77,2.59-5.77,5.77V190.2
		c0,3.18,2.59,5.77,5.77,5.77h135.47c3.18,0,5.77-2.59,5.77-5.77V46.22C156.43,44.68,155.83,43.23,154.73,42.14z M152.87,42.14
		h-34.1V8.04L152.87,42.14z M155.43,190.2c0,2.63-2.14,4.77-4.77,4.77H15.18c-2.63,0-4.77-2.14-4.77-4.77V10.16
		c0-2.63,2.14-4.77,4.77-4.77h99.38c1.2,0,2.32,0.45,3.2,1.25v36.5h36.5c0.74,0.86,1.16,1.94,1.16,3.08V190.2z" />
    </g>
    <linearGradient id="SVGID_1_" gradientUnits="userSpaceOnUse" x1="137.1629" y1="45.5471" x2="136.2987" y2="85.0516">
        <stop offset="0" style="stop-color:#000000" />
        <stop offset="0.8412" style="stop-color:#D1D2D4" />
    </linearGradient>
    <polygon style="opacity:0.17;fill:url(#SVGID_1_);" points="117.77,43.14 154.29,43.14 155.77,45.05 155.54,94.45 " />
    <polygon style="opacity:0.21;" points="119,180.41 9.91,180.41 9.91,143.16 117.24,137.03 119,142.13 " />
    <polygon fill="currentColor"
        points="116.39,137.46 3.69,137.46 3.69,174.82 9.47,180.14 9.52,174.82 116.39,174.82 " />
    <path d="M117.28,137.11H3.59v38.18l-0.04,0.05l6.56,5.94l0.12-1.29l-5.16-4.62h112.22V137.11z M116.28,174.36H4.59v-36.25h111.69
	V174.36z" />
</svg>