<?xml version="1.0" encoding="UTF-8"?>
<svg xmlns="http://www.w3.org/2000/svg" version="1.1" viewBox="0 0 50 50">
  <!-- Generator: Adobe Illustrator 29.0.1, SVG Export Plug-In . SVG Version: 2.1.0 Build 192)  -->
  <g style="isolation: isolate;">
    <g id="Layer_1">
      <path id="path37247" d="M45.8,11.4c0-.6-.5-1.1-1.2-1.1h-25.3l-2.5-2.4c-.3-.3-.9-.5-1.3-.5H5.7c-.8,0-1.5.7-1.5,1.5v2.6s.4,31.3-1.2,31.3h44c-1.5,0-1.2-31.3-1.2-31.3h0Z" style="fill: #2192c4;"/>
      <path id="path37603" d="M48.3,41.5c0,.6-.6,1.2-1.2,1.2H2.9c-.6,0-1.2-.5-1.2-1.2L.3,14.5c0-.6.4-1.2,1.1-1.2h47.2c.6,0,1.1.5,1.1,1.2l-1.4,27Z" style="fill: #0c639c;"/>
      <rect x="3.4" y="40.5" width="43.1" height="1.5" rx=".8" ry=".8" style="fill: #fff; mix-blend-mode: overlay; opacity: .7;"/>
    </g>
  </g>
</svg>