<?xml version="1.0" encoding="UTF-8"?>
<svg xmlns="http://www.w3.org/2000/svg" version="1.1" xmlns:xlink="http://www.w3.org/1999/xlink" viewBox="0 0 800 300">
  <!-- Generator: Adobe Illustrator 29.0.1, SVG Export Plug-In . SVG Version: 2.1.0 Build 192)  -->
  <defs>
    <clipPath id="clippath">
      <polygon points="308.3 83.6 328.3 83 320.5 130.4 303.6 106.8 304.2 101.5 306.5 91 308.3 83.6" style="fill: none;"/>
    </clipPath>
    <linearGradient id="linear-gradient" x1="308" y1="223.1" x2="308" y2="121.1" gradientUnits="userSpaceOnUse">
      <stop offset="0" stop-color="#fff200"/>
      <stop offset="1" stop-color="#fff200" stop-opacity="0"/>
    </linearGradient>
    <linearGradient id="linear-gradient1" x1="285.6" y1="221.7" x2="285.6" y2="119.8" gradientUnits="userSpaceOnUse">
      <stop offset="0" stop-color="#fff" stop-opacity=".5"/>
      <stop offset="1" stop-color="#fff" stop-opacity="0"/>
    </linearGradient>
    <linearGradient id="linear-gradient2" x1="304" y1="223" x2="304" y2="123.8" xlink:href="#linear-gradient1"/>
    <linearGradient id="linear-gradient3" x1="292.8" y1="222.8" x2="292.8" y2="124.9" gradientUnits="userSpaceOnUse">
      <stop offset="0" stop-color="#f9ed32" stop-opacity=".5"/>
      <stop offset=".3" stop-color="#f9ed32" stop-opacity=".5"/>
      <stop offset=".5" stop-color="#f9ed32" stop-opacity=".5"/>
      <stop offset=".6" stop-color="#f9ed32" stop-opacity=".4"/>
      <stop offset=".7" stop-color="#f9ed32" stop-opacity=".3"/>
      <stop offset=".8" stop-color="#f9ed32" stop-opacity=".2"/>
      <stop offset=".9" stop-color="#f9ed32" stop-opacity="0"/>
      <stop offset="1" stop-color="#f9ed32" stop-opacity="0"/>
    </linearGradient>
    <linearGradient id="linear-gradient4" x1="281.5" y1="220.3" x2="281.5" y2="121.9" xlink:href="#linear-gradient3"/>
    <clipPath id="clippath-1">
      <path d="M310.9,82.4s9.8,0,17.4-.5,66.6-29.7,66.6-29.7l-16.8-23.7-56.9,7.8-9.1,14.7-1.1,31.4Z" style="fill: none;"/>
    </clipPath>
    <linearGradient id="linear-gradient5" x1="322" y1="141" x2="322" y2="135.8" xlink:href="#linear-gradient"/>
    <linearGradient id="linear-gradient6" x1="324.5" y1="157.9" x2="324.5" y2="152.7" xlink:href="#linear-gradient"/>
    <linearGradient id="linear-gradient7" x1="330.1" y1="149.3" x2="330.1" y2="144.2" xlink:href="#linear-gradient"/>
    <linearGradient id="linear-gradient8" x1="310" y1="184.2" x2="310" y2="179.1" xlink:href="#linear-gradient"/>
    <linearGradient id="linear-gradient9" x1="312.5" y1="163.9" x2="312.5" y2="158.7" xlink:href="#linear-gradient"/>
    <linearGradient id="linear-gradient10" x1="317.4" y1="201.7" x2="317.4" y2="196.5" xlink:href="#linear-gradient"/>
    <linearGradient id="linear-gradient11" x1="324.5" y1="186.8" x2="324.5" y2="181.7" xlink:href="#linear-gradient"/>
    <linearGradient id="linear-gradient12" x1="323.5" y1="173.7" x2="323.5" y2="168.5" xlink:href="#linear-gradient"/>
  </defs>
  <g style="isolation: isolate;">
    <g id="Layer_2">
      <g>
        <rect x="597.6" y="75.4" width="170.4" height="170.4" rx="18" ry="18" style="fill: #48484a;"/>
        <path d="M338.1,128.9c0-15.7,3.3-57.9,59.8-57.9s58.6,34.1,59.6,52.4c.2,3.3-1.9,6-5.2,6.7l-26.5,6c-5,1-8.8-2.4-9.5-7.4-1.2-10.5-5.5-16.7-18.3-16.7s-18.8,11.2-18.8,29.5v34.3c0,18.3,1.2,29.5,18.8,29.5s16.7-6.2,18.1-17.2c.7-5,4.5-8.1,9.3-6.9l26.9,6c3.3.7,5.5,3.3,5.2,6.9-1,18.1-8.8,52.2-59.6,52.2s-59.8-42.2-59.8-57.9v-59.6Z" style="fill: #48484a;"/>
        <path d="M571.6,75.3c4.8,0,7.1,2.4,7.1,7.1v26.7c0,4.5-2.4,7.1-7.1,7.1h-57.7c-4.5,0-7.1,2.4-7.1,7.1v7.6c0,4.5,2.6,7.1,7.1,7.1h36.9c4.8,0,7.1,2.4,7.1,7.1v26.7c0,4.5-2.4,7.1-7.1,7.1h-36.9c-4.5,0-7.1,2.4-7.1,7.1v7.6c0,4.5,2.6,7.1,7.1,7.1h57.7c4.8,0,7.1,2.4,7.1,7.1v26.7c0,4.8-2.4,7.1-7.1,7.1h-100.1c-4.5,0-7.1-2.6-7.1-7.1V82.4c0-4.8,2.6-7.1,7.1-7.1h100.1Z" style="fill: #48484a;"/>
        <path d="M679,119.8c2.1,0,3.6,1.5,3.6,3.6v51.4c0,7.6-1.6,28.2-29.1,28.2s-28.5-16.6-29-25.5c-.1-1.6.9-2.9,2.5-3.2l12.9-2.9c2.4-.5,4.3,1.2,4.6,3.6.6,5.1,2.7,8.1,8.9,8.1s9.2-5.4,9.2-14.4v-45.3c0-2.1,1.5-3.6,3.6-3.6h12.7Z" style="fill: #f68f21;"/>
        <g>
          <path d="M709.7,204.5c-27.8,0-31.2-20.2-31.6-26.4-.2-2.8,1.4-4.8,4.2-5.4l13.1-2.9c.5,0,.9-.1,1.3-.1,1.2,0,3.9.4,4.3,4.5.4,4.5,3.8,7.4,8.7,7.4s6.1-1.5,7.1-2.7c.4-.5.8-1.2.6-1.9-.6-2.8-5.6-4.7-11.4-6.9-10.9-4.1-25.7-9.8-25.7-27.7,0,0-.2-9.8,7.1-17.4,5.2-5.4,12.7-8.1,22.4-8.1,21.8,0,30.6,13,31.6,25.2.2,2.8-1.4,4.8-4.2,5.4l-13.2,2.9c-.5,0-.9.1-1.3.1-1.4,0-3.7-.6-4.3-4.3-.7-4-3.9-6.5-8.6-6.5s-3.9.7-4.8,1.8c-.3.4-.7,1-.6,1.8.4,2.4,5.6,4.5,11.1,6.7,11.5,4.6,27.2,10.9,27.2,29s-5.6,25.5-32.9,25.5Z" style="fill: #fff;"/>
          <path d="M709.7,118.3c23.9,0,29.4,15.5,30.1,23.9.1,2.1-.9,3.4-3,3.8l-13.2,2.9c-.4,0-.7.1-1,.1-1.7,0-2.5-1-2.8-3-.8-4.8-4.6-7.8-10.1-7.8s-7.3,2.7-6.8,5.3c1.6,9,38.2,8.8,38.2,35.5s-3.9,24-31.4,24-29.5-16-30.1-25c-.1-2.1.9-3.4,3-3.8l13.1-2.9c.4,0,.7-.1,1-.1,1.7,0,2.6,1.1,2.8,3.1.5,5.6,4.8,8.8,10.2,8.8s9.8-3.4,9.2-6.5c-2.2-9.8-37.1-7.6-37.1-34.3-.1-3.5,2-24,27.9-24M709.7,115.3c-10.1,0-17.9,2.9-23.4,8.6-6.2,6.4-7.6,14.8-7.5,18.5,0,8.3,3.2,15.1,9.4,20.2,2.9,2.4,6.2,4.2,9.5,5.7-.3,0-.7,0-1,0-.5,0-1,0-1.6.2h0s0,0,0,0l-13.1,2.9c-3.6.8-5.6,3.4-5.4,6.9.4,6.6,4,27.9,33.1,27.9s34.4-21.3,34.4-27c0-15-10.5-22.4-20.4-27.1.2,0,.3,0,.5,0h0s0,0,0,0l13.2-2.9c3.6-.8,5.6-3.4,5.4-6.9h0s0,0,0,0c-1.1-12.9-10.3-26.6-33.1-26.6h0ZM717.8,149.3c-.6-.3-1.2-.5-1.8-.7-4.2-1.7-9.9-4-10.1-5.6,0-.2.1-.4.2-.6.5-.6,1.7-1.2,3.6-1.2,3.9,0,6.5,1.9,7.1,5.2.2,1.2.5,2.1,1,2.9h0ZM709.7,180.1c-3.2,0-6.8-1.6-7.2-6.1-.2-2.3-1.1-3.8-2.3-4.7,1.8.7,3.5,1.4,5.2,2.1,4.7,1.8,10,3.8,10.5,5.9,0,.1,0,.4-.3.7-.9,1.1-3,2.2-5.9,2.2h0Z" style="fill: #48484a;"/>
        </g>
        <g>
          <path d="M261.4,82.4l17.1,151.9s-3.3,7.3,29.8,7.7c33.1.4,32.9-6.2,32.9-6.2l13.6-153.4-4.2,1.2-2.4,25.7-78.1-.7-4.5-25-4.1-1.2Z" style="fill: #dff3fd;"/>
          <g>
            <path d="M310.5,239.5c13.6.1,21.5-2.4,26-5l1.7-11.8c-2.8,2.7-10.1,6.4-28.8,6.5-20.3.1-28-4.9-30.7-7.9l2.4,13.2c5.6,2.3,15,4.9,29.5,5Z" style="fill: #e1ecec;"/>
            <path d="M310.5,239.5c8.8,0,18.1-.7,25.9-5,0,.3,1.6-11.9,1.6-11.8,0,0,.2,0,.2,0-7.5,6.9-27.9,7.1-37.9,6.3-7.3-.7-16.5-2.2-21.8-7.7,0,0,.2,0,.2,0,0,0,2.4,13.5,2.3,13.1,9.3,3.8,19.5,4.9,29.4,5.1h0ZM310.5,239.5c-7.5,0-15.1-.7-22.4-2.6-2.4-.6-4.9-1.4-7.2-2.4,0,0-2.4-13.2-2.4-13.2,0,0,0-.4,0-.4,0,0,.3.3.3.3,5.2,5.4,14.4,6.9,21.6,7.5,10.1.7,30.4.8,38-6.3,0,0,0,.3,0,.3,0,0-1.6,11.9-1.7,11.9-7.9,4.3-17.2,4.9-26,4.9h0Z" style="fill: #455977;"/>
          </g>
          <g>
            <path d="M289.8,227.3c-6.3-1.7-9.6-4.1-11.2-5.9l2.4,13.2c2.6,1.1,6,2.2,10.4,3.1l-1.6-10.4Z" style="fill: #b5bec4; opacity: .5;"/>
            <path d="M328.2,227.4l-1,10.7c4.1-.9,7.1-2.2,9.3-3.4l1.7-11.8c-1.6,1.5-4.5,3.3-10,4.6Z" style="fill: #b5bec4; opacity: .5;"/>
          </g>
          <polyline points="267.2 83.6 270.3 110.5 273.9 108.9 270.3 82.9 266.2 83.6" style="fill: #dee6ea;"/>
          <polyline points="347.8 86 344.7 112.9 341.1 111.4 344.7 85.3 348.9 86" style="fill: #dee6ea;"/>
          <g>
            <polyline points="265.5 83.6 268.6 110.5 272.2 108.9 268.6 82.9 264.5 83.6" style="fill: #8c99ae;"/>
            <path d="M268.4,110.8l-3.1-27.1h-.8c0,.1,0-.2,0-.2l4.3-.7,3.7,26.4-4,1.7ZM265.7,83.6l3,26.6,3.2-1.4-3.4-24.5-2.9-.7Z" style="fill: #656668;"/>
          </g>
          <g>
            <polyline points="350.7 83.6 347.6 110.5 344 108.9 347.6 82.9 351.7 83.6" style="fill: #8c99ae;"/>
            <path d="M347.8,110.8l-4-1.7,3.7-26.4,4.3.7v.4c0,0-.9-.1-.9-.1l-3.1,27.1ZM344.2,108.8l3.2,1.4,3-26.6-2.7-.5-3.6,25.7Z" style="fill: #656668;"/>
          </g>
          <path d="M308.3,75.4c-21.1,0-38.2,1.8-38.2,4.1s17.1,4.1,38.2,4.1,38.2-1.8,38.2-4.1-17.1-4.1-38.2-4.1ZM308.6,82.4c-20.1,0-36.4-1.4-36.4-3.1s16.3-3.1,36.4-3.1,36.4,1.4,36.4,3.1-16.3,3.1-36.4,3.1Z" style="fill: #556581; opacity: .9;"/>
          <path d="M260.1,80.3l16.4,153s-1.3,7.4,12.5,8.6c13.8,1.2,26.5,4.9,48.7-2.3,0,0,3.4-.9,3.9-6.5s13.3-154.4,13.3-154.4c0,0,1.9,4.6-28.8,7.5,0,0,12.6,1.3,26.5-2.6l-13.8,150.2s1.6,4.2-9.2,5.3-25.1,3.6-46.7-1.9c0,0-3.9,0-4.3-5.4-.4-5.4-15.8-148.6-15.8-148.6,0,0,3.7,1.2,15.4,2.2,0,0-13.8-1.9-18-5.1Z" style="fill: #556581;"/>
          <path d="M348.8,110.5c.2,3.3-14.1,7.9-26.8,8.1-6,0-5.5-.9-14-1.1-13.1-.3-16,2.4-24.3.7-6.2-1.3-16.7-4.6-16.4-7.7.3-4.5,23.3-7,40.8-7s40.6,2.7,40.8,7Z" style="fill: #f2ca20;"/>
          <path d="M268.3,113.4l12.6,107.4s6.9,8.2,30.8,7.2c23.9-1,26.1-7.1,26.1-7.1l10.7-108s-6.9,10.4-37.7,11.1c-35.6.8-42.5-10.6-42.5-10.6Z" style="fill: #ef4523;"/>
          <g style="clip-path: url(#clippath);">
            <g>
              <path d="M373.3,33.7s8-.2,4.4,14.2l-44.3,8.2s-2.6-1-3.8,6c-1.2,7-9.2,48.8-9.2,48.8,0,0-4.6,4.9-14.7-2.1l12.2-55.5s.2-8.8,9.4-10.2,45.9-9.4,45.9-9.4Z" style="fill: #787877;"/>
              <path d="M374.1,34.2s8-.2,4.4,14.2l-44.3,8.2s-2.6-1-3.8,6-9.6,47.7-9.6,47.7c0,0-7,4.9-14.2-1l12.2-55.5s.2-8.8,9.4-10.2,45.9-9.4,45.9-9.4Z" style="fill: #fdf9f4;"/>
              <path d="M379.5,43.1c-7.1,1.2-39.5,6.7-46.9,7.9-8.4,1.3-7.6,5.9-7.6,5.9l-11.6,55.3c4.3.4,7.5-1.9,7.5-1.9,0,0,8.4-40.7,9.6-47.7,1.2-7,3.8-6,3.8-6l44.3-8.2c.5-2.1.8-3.9.9-5.4Z" style="fill: #9f9f9f; mix-blend-mode: multiply; opacity: .6;"/>
              <g>
                <path d="M326.7,63c.8.3,2.1,1.1,3.3,2,.2-.9.3-1.7.4-2.2,1.2-7,3.8-6,3.8-6,2-5.6-1.9-9.3-2.6-13.6-1.4.2-2.5.4-3.4.6-9.2,1.4-9.4,10.2-9.4,10.2l-.6,2.7c1.9,2,4.2,4.7,8.5,6.4Z" style="fill: #ea5625;"/>
                <path d="M348.3,39.8c-1,2.6-2.4,5.6-2.8,11,0,1-.5,2.5-1.1,4.1l7.8-1.5c1.2-1.6,2.9-3.4,3.5-4.7,2.3-5.3,2.2-7.9,3.8-11.2-3.6.8-7.4,1.6-11.3,2.4Z" style="fill: #ea5625;"/>
                <path d="M376.3,34.9c-1.3,2.7-4.3,5.7-5,11.3-.1.9-.6,2.3-1.2,3.8l8.4-1.6c2.3-9.2-.1-12.5-2.2-13.6Z" style="fill: #ea5625;"/>
                <path d="M325.3,78.6c-4.9-3.7-7.4-4-10.5-6.8l-2.8,12.7c1.9,2,4.2,4.7,8.5,6.4,1,.4,2.4,1.3,3.8,2.3.9-4.2,1.8-8.7,2.6-12.9-.6-.7-1.1-1.3-1.6-1.7Z" style="fill: #ea5625;"/>
                <path d="M319.1,106.5c-4.9-3.7-7.4-4-10.4-6.8l-2.2,9.8c7.2,5.8,14.2,1,14.2,1,0,0,.1-.6.4-1.8-.7-.9-1.4-1.7-2-2.2Z" style="fill: #ea5625;"/>
              </g>
              <path d="M309.1,111.4c1.4-9.6,3.4-19.1,5.8-28.5,1.2-4.7,2.6-9.3,3.9-14,1.3-5,2.5-10.4,3.3-15.1.8-3.8,4.6-6.1,8.2-6.6,0,0,1.8-.3,1.8-.3,10.4-2.2,20.7-4.8,31.1-6.8,4.9-1,9.8-1.9,14.8-2.7,0,0,0,.2,0,.2-16.1,5.1-32.5,9.3-49.2,11.8-2.8.6-5.5,2.6-5.8,5.6-1.3,4.7-2.5,9.4-3.4,14.1-1,4.7-1.7,9.5-2.7,14.3-.7,3.4-1.7,7.2-2.5,10.6-1.5,5.8-3.1,11.8-5,17.5,0,0-.2,0-.2,0h0Z" style="fill: #fff; mix-blend-mode: lighten; opacity: .7;"/>
              <path d="M308.5,110.2c1.4-9.6,3.4-19.1,5.8-28.5,1.2-4.7,2.6-9.3,3.9-14,1.3-5,2.5-10.4,3.3-15.1.8-3.8,4.6-6.1,8.2-6.6,0,0,1.8-.3,1.8-.3,10.4-2.2,20.7-4.8,31.1-6.8,4.9-1,9.8-1.9,14.8-2.7v.2c-16,5.1-32.5,9.3-49.2,11.8-2.8.6-5.5,2.6-5.8,5.6-1.3,4.7-2.5,9.4-3.4,14.1-1,4.7-1.7,9.5-2.7,14.3-.7,3.4-1.7,7.2-2.5,10.6-1.5,5.8-3.1,11.8-5,17.5,0,0-.2,0-.2,0h0Z" style="fill: #fff462; mix-blend-mode: lighten; opacity: .7;"/>
            </g>
          </g>
          <path d="M268.9,114.8l12.1,104.5s6.8,8.1,30.4,7.1c23.6-1,25.8-7,25.8-7l10.3-105.1c-1.5.5-3.8,1.4-6.5,2.5-5,2.1-7.8,2-13,3s-8.2.6-15.8-.4c-7.7-1-22.1,2.5-28.5,1-7.3-1.7-11.5-3.6-14.9-5.6Z" style="fill: #f68f21;"/>
          <path d="M272.2,121.5l11.1,95s6.2,7.4,27.7,6.5c21.5-.9,23.5-6.4,23.5-6.4l9.4-95.5c-1.4.5-3.4,1.3-5.9,2.3-4.5,1.9-7.1,1.8-11.9,2.7s-7.4.6-14.4-.3c-7.1-.9-20.1,2.3-25.9.9-6.7-1.6-10.5-3.3-13.5-5.1Z" style="fill: url(#linear-gradient);"/>
          <polygon points="294.3 221.7 288.6 220.1 276.9 119.8 289.4 121.8 294.3 221.7" style="fill: url(#linear-gradient1);"/>
          <polygon points="301.9 223 298.6 222.8 297.9 123.8 310 124.9 301.9 223" style="fill: url(#linear-gradient2);"/>
          <polygon points="298.6 222.8 292.2 221.7 285.1 125.5 300.5 124.9 298.6 222.8" style="fill: url(#linear-gradient3);"/>
          <polygon points="289.6 220.3 285.1 218.8 273.4 121.9 282.6 124.4 289.6 220.3" style="fill: url(#linear-gradient4);"/>
          <g>
            <path d="M332.2,225.9l-2.1,11.1c2.6-.8,4.7-1.7,6.3-2.7l1.7-11.8c-1.1,1.1-2.9,2.3-5.9,3.4Z" style="fill: #556581;"/>
            <path d="M284.6,225.2c-3.1-1.4-5-2.9-6.1-4.1l2.4,13.2c1.4.6,3,1.2,4.9,1.7l-1.2-10.8Z" style="fill: #556581;"/>
          </g>
          <path d="M307.6,72.3c-26.2,0-47.5,3.3-47.5,7.3s21.2,7.3,47.5,7.3,47.5-3.3,47.5-7.3-21.2-7.3-47.5-7.3ZM308,86.2c-25,0-45.2-2.9-45.2-6.5s20.2-6.5,45.2-6.5,45.2,2.9,45.2,6.5-20.2,6.5-45.2,6.5Z" style="fill: #556581;"/>
          <g style="clip-path: url(#clippath-1);">
            <g>
              <path d="M373.3,33.8s8-.2,4.4,14.2l-44.3,8.2s-2.6-1-3.8,6-9.2,48.8-9.2,48.8c0,0-4.6,4.9-14.7-2.1l12.2-55.5s.2-8.8,9.4-10.2,45.9-9.4,45.9-9.4Z" style="fill: #787877;"/>
              <path d="M374.1,34.3s8-.2,4.4,14.2l-44.3,8.2s-2.6-1-3.8,6-9.6,47.7-9.6,47.7c0,0-7,4.9-14.2-1l12.2-55.5s.2-8.8,9.4-10.2,45.9-9.4,45.9-9.4Z" style="fill: #fdf9f4;"/>
              <path d="M379.5,43.1c-7.1,1.2-39.5,6.7-46.9,7.9-8.4,1.3-7.6,5.9-7.6,5.9l-11.6,55.3c4.3.4,7.5-1.9,7.5-1.9,0,0,8.4-40.7,9.6-47.7,1.2-7,3.8-6,3.8-6l44.3-8.2c.5-2.1.8-3.9.9-5.4Z" style="fill: #9f9f9f; mix-blend-mode: multiply; opacity: .6;"/>
              <g>
                <path d="M326.7,63c.8.3,2.1,1.1,3.3,2,.2-.9.3-1.7.4-2.2,1.2-7,3.8-6,3.8-6,2-5.6-1.9-9.3-2.6-13.6-1.4.2-2.5.4-3.4.6-9.2,1.4-9.4,10.2-9.4,10.2l-.6,2.7c1.9,2,4.2,4.7,8.5,6.4Z" style="fill: #ea5625;"/>
                <path d="M348.3,39.8c-1,2.6-2.4,5.6-2.8,11,0,1-.5,2.5-1.1,4.1l7.8-1.5c1.2-1.6,2.9-3.4,3.5-4.7,2.3-5.3,2.2-7.9,3.8-11.2-3.6.8-7.4,1.6-11.3,2.4Z" style="fill: #ea5625;"/>
                <path d="M376.3,34.9c-1.3,2.7-4.3,5.7-5,11.3-.1.9-.6,2.3-1.2,3.8l8.4-1.6c2.3-9.2-.1-12.5-2.2-13.6Z" style="fill: #ea5625;"/>
                <path d="M325.3,78.6c-4.9-3.7-7.4-4-10.5-6.8l-2.8,12.7c1.9,2,4.2,4.7,8.5,6.4,1,.4,2.4,1.3,3.8,2.3.9-4.2,1.8-8.7,2.6-12.9-.6-.7-1.1-1.3-1.6-1.7Z" style="fill: #ea5625;"/>
                <path d="M319.1,106.5c-4.9-3.7-7.4-4-10.4-6.8l-2.2,9.8c7.2,5.8,14.2,1,14.2,1,0,0,.1-.6.4-1.8-.7-.9-1.4-1.7-2-2.2Z" style="fill: #ea5625;"/>
              </g>
              <path d="M309.1,111.4c1.4-9.6,3.4-19.1,5.8-28.5,1.2-4.7,2.6-9.3,3.9-14,1.3-5,2.5-10.4,3.3-15.1.8-3.8,4.6-6.1,8.2-6.6,0,0,1.8-.3,1.8-.3,10.4-2.2,20.7-4.8,31.1-6.8,4.9-1,9.8-1.9,14.8-2.7v.2c-16,5.1-32.5,9.3-49.2,11.8-2.8.6-5.5,2.6-5.8,5.6-1.3,4.7-2.5,9.4-3.4,14.1-1,4.7-1.7,9.5-2.7,14.3-.7,3.4-1.7,7.2-2.5,10.6-1.5,5.8-3.1,11.8-5,17.5,0,0-.2,0-.2,0h0Z" style="fill: #fff; mix-blend-mode: lighten; opacity: .7;"/>
              <path d="M308.5,110.3c1.4-9.6,3.4-19.1,5.8-28.5,1.2-4.7,2.6-9.3,3.9-14,1.3-5,2.5-10.4,3.3-15.1.8-3.8,4.6-6.1,8.2-6.6,0,0,1.8-.3,1.8-.3,10.4-2.2,20.7-4.8,31.1-6.8,4.9-1,9.8-1.9,14.8-2.7,0,0,0,.2,0,.2-16.1,5.1-32.5,9.3-49.2,11.8-2.8.6-5.5,2.6-5.8,5.6-1.3,4.7-2.5,9.4-3.4,14.1-1,4.7-1.7,9.5-2.7,14.3-.7,3.4-1.7,7.2-2.5,10.6-1.5,5.8-3.1,11.8-5,17.5,0,0-.2,0-.2,0h0Z" style="fill: #fff462; mix-blend-mode: lighten; opacity: .7;"/>
            </g>
          </g>
          <path d="M278.5,116.9s10.6,1.8,19.4-6.4.9,7.3.9,7.3c0,0-11.9,3-20.3-.9Z" style="fill: #fffaca; opacity: .6;"/>
          <path d="M306.2,116.8s-4.8-4.7.2-3.9,9.2,3.6,15.8.8c6.6-2.8,20.9-3.7,22.5-.8s-18.1,5.5-18.1,5.5c0,0-10.7-.3-20.4-1.6Z" style="fill: #fffaca; opacity: .6;"/>
          <path d="M270.7,113.6s10.4,1.8,16-2.4c5.6-4.2,7.5-2.3,14.9-4.4,0,0,9.9-3.2-1.7-2s-17.9,4-23.1,4-9.9-1-8.9,1.9,2.7,3.1,2.7,3.1Z" style="fill: #fffaca; opacity: .6;"/>
          <g style="opacity: .6;">
            <path d="M295.2,221.4c-1.7-8.1-2.5-16.3-2.6-24.5,0-4.1.5-8.2.5-12.3,0-6.2-1-12.3-1.8-18.4-.6-6.1-1.1-12.3-1.3-18.4-.2-8.2,0-16.4.8-24.7,0,0,.4,0,.4,0,2.4,12.2,3.3,24.5,3.3,36.8.2,8.2-.8,16.5-.2,24.7.3,4.1,1.1,8.2,1.6,12.3.4,4.1.5,8.2.4,12.3,0,4.1-.2,8.2-.8,12.4,0,0-.4,0-.4,0h0Z" style="fill: #fff;"/>
          </g>
          <ellipse cx="322" cy="138.4" rx="1.5" ry="2.6" style="fill: url(#linear-gradient5);"/>
          <ellipse cx="324.5" cy="155.3" rx="1.5" ry="2.6" style="fill: url(#linear-gradient6);"/>
          <ellipse cx="330.1" cy="146.7" rx="1.5" ry="2.6" style="fill: url(#linear-gradient7);"/>
          <ellipse cx="310" cy="181.7" rx="1.5" ry="2.6" style="fill: url(#linear-gradient8);"/>
          <ellipse cx="312.5" cy="161.3" rx="1.5" ry="2.6" style="fill: url(#linear-gradient9);"/>
          <ellipse cx="317.4" cy="199.1" rx="1.5" ry="2.6" style="fill: url(#linear-gradient10);"/>
          <ellipse cx="324.5" cy="184.2" rx="1.5" ry="2.6" style="fill: url(#linear-gradient11);"/>
          <ellipse cx="323.5" cy="171.1" rx="1.5" ry="2.6" style="fill: url(#linear-gradient12);"/>
        </g>
        <g>
          <path d="M138.8,75.3c4.3,0,7.4,3.1,7.4,7.4v105.8c0,15.7-3.3,57.9-59.8,57.9s-58.6-34.1-59.6-52.4c-.2-3.3,1.9-6,5.2-6.7l26.4-6c5-1,8.8,2.4,9.5,7.4,1.2,10.5,5.5,16.7,18.3,16.7s18.8-11.2,18.8-29.5v-93.2c0-4.3,3.1-7.4,7.4-7.4h26.2Z" style="fill: #48484a;"/>
          <path d="M187,75.3c4.8,0,7.1,2.4,7.1,7.1v93.4c0,18.3,1.2,29.5,18.8,29.5s18.8-11.2,18.8-29.5v-93.4c0-4.8,2.6-7.1,7.1-7.1h26.7c4.8,0,7.1,2.4,7.1,7.1v106c0,15.7-3.3,57.9-59.8,57.9s-59.8-42.2-59.8-57.9v-106c0-4.8,2.6-7.1,7.1-7.1h26.7Z" style="fill: #48484a;"/>
        </g>
      </g>
    </g>
  </g>
</svg>